<svg width="435.8" height="80.5" viewBox="0 0 435.8 80.5" xmlns="http://www.w3.org/2000/svg"><g id="svgGroup" stroke-linecap="round" fill-rule="evenodd" font-size="9pt" stroke="#000" stroke-width="0.25mm" fill="#000" style="stroke:#000;stroke-width:0.25mm;fill:#000"><path d="M 77.2 7 L 82.8 4.5 L 101.4 10.2 A 3459.226 3459.226 0 0 1 96.014 26.374 Q 93.87 32.759 91.891 38.553 A 1898.983 1898.983 0 0 1 88.1 49.55 A 599.37 599.37 0 0 1 82.75 64.313 Q 79.769 72.2 76.9 79 L 55.3 79 Q 53.1 56.7 50.7 36.7 A 260.182 260.182 0 0 1 48.736 44.207 Q 47.818 47.525 46.734 51.161 A 481.856 481.856 0 0 1 44.4 58.75 Q 40.4 71.4 37.5 79 L 16.1 79 Q 13.8 63.4 10.05 41.9 A 729.588 729.588 0 0 0 8.712 34.442 Q 5.963 19.594 4.5 16.1 A 2.389 2.389 0 0 0 3.45 14.92 Q 2.286 14.22 0 14.1 L 3.3 9 L 23.7 5.1 Q 25.096 14.074 26.79 27.322 A 1329.711 1329.711 0 0 1 26.8 27.4 Q 29.1 44.1 30.8 55.7 Q 36.6 36.4 42.4 12.3 L 43.5 7.7 L 61.3 6 Q 64.3 29.1 67.1 47.9 A 44.582 44.582 0 0 0 67.221 48.957 Q 67.432 50.65 67.894 53.703 A 523.895 523.895 0 0 0 68.2 55.7 Q 72 44 75.05 31.95 A 634.684 634.684 0 0 0 77.162 23.37 Q 78.775 16.6 79.9 11.1 A 2.553 2.553 0 0 0 79.946 10.621 Q 79.946 8.771 77.2 7 Z M 434.3 76.5 L 431.9 79 L 413.6 79 L 416.8 42.2 Q 410 42.9 403.3 44.8 L 401 72.1 A 8.003 8.003 0 0 0 400.965 72.66 Q 400.941 73.576 401.151 74.317 A 3.659 3.659 0 0 0 402.8 76.5 L 400.4 79 L 382.1 79 L 388.3 6.6 A 3.333 3.333 0 0 0 388.312 6.323 Q 388.312 5.791 388.13 5.344 A 2.4 2.4 0 0 0 387.65 4.6 Q 386.9 3.8 386 3.15 A 27.033 27.033 0 0 0 385.583 2.854 Q 385 2.45 384.7 2.3 L 390 0 L 407 2.4 L 404.4 33 Q 409.297 30.435 416.007 27.93 A 164.029 164.029 0 0 1 420 26.5 L 435.8 33.9 L 432.5 72.1 A 8.003 8.003 0 0 0 432.465 72.66 Q 432.441 73.576 432.651 74.317 A 3.659 3.659 0 0 0 434.3 76.5 Z M 295 2.4 L 293.1 19.5 L 291.1 21.2 Q 288.191 20.812 277.666 20.424 A 818.062 818.062 0 0 0 277 20.4 A 56.435 56.435 0 0 0 275.869 20.356 Q 273.998 20.301 270.973 20.3 A 332.567 332.567 0 0 0 270.9 20.3 A 314.49 314.49 0 0 0 268.863 20.306 Q 265.975 20.325 264.1 20.4 L 262.7 37.8 L 278.8 37.3 A 14.654 14.654 0 0 0 281.606 36.94 A 11.709 11.709 0 0 0 283.8 36.2 Q 285.51 35.423 287.522 34.041 A 40.361 40.361 0 0 0 288.7 33.2 L 287 50.2 L 285 51.9 A 81.464 81.464 0 0 0 280.125 51.402 Q 276.781 51.156 272.9 51.1 Q 269.991 51.023 264.854 51.005 A 962.87 962.87 0 0 0 261.5 51 L 259.6 73.3 A 4.286 4.286 0 0 0 259.939 74.828 Q 260.377 75.827 261.368 76.479 A 4.771 4.771 0 0 0 261.4 76.5 L 259.1 78.9 L 259.1 79 L 239.6 79 L 246 7.4 L 248.3 3.2 A 29.785 29.785 0 0 0 249.266 4.295 Q 249.774 4.841 250.242 5.278 A 11.896 11.896 0 0 0 251.15 6.05 Q 252.4 7 253.9 7 L 254.4 7 Q 269.3 7 286.1 6.4 Q 288.3 6.3 290.35 5.3 A 22.691 22.691 0 0 0 291.965 4.423 Q 293.375 3.587 295 2.4 Z M 373.1 26.9 L 372.3 40.4 Q 370.444 40.194 367.973 40.129 A 91.188 91.188 0 0 0 365.6 40.1 Q 361.1 40.1 356.65 40.5 A 72.767 72.767 0 0 0 354.04 40.779 Q 351.399 41.113 349.559 41.585 A 21.551 21.551 0 0 0 349.5 41.6 L 373.1 54.5 A 164.347 164.347 0 0 1 372.965 58.123 Q 372.876 59.971 372.743 62.016 A 277.67 277.67 0 0 1 372.65 63.4 Q 372.409 66.838 372.145 69.661 A 171.136 171.136 0 0 1 371.9 72.1 A 37.017 37.017 0 0 1 369.093 73.883 Q 366.407 75.436 362.8 77.05 A 62.446 62.446 0 0 1 358.35 78.85 Q 356.108 79.652 354.067 80.153 A 33.622 33.622 0 0 1 352.5 80.5 A 45.874 45.874 0 0 1 349.684 79.988 Q 346.531 79.322 342.306 78.08 A 158.975 158.975 0 0 1 341.7 77.9 A 89.77 89.77 0 0 1 335.423 75.784 A 65.683 65.683 0 0 1 329.9 73.4 L 336.4 56.8 Q 339 61.3 339.6 62.1 A 15.486 15.486 0 0 0 341.644 63.162 Q 345.133 64.701 351.85 66.343 A 148.185 148.185 0 0 0 352.5 66.5 Q 355.065 65.8 358.114 64.194 A 45.733 45.733 0 0 0 359.9 63.2 L 335.2 49 A 74.572 74.572 0 0 1 335.239 46.708 Q 335.325 43.934 335.6 40.05 Q 336 34.4 336.4 31.2 A 51.783 51.783 0 0 1 340.059 30.119 Q 344.466 28.978 350.55 28.05 A 115.695 115.695 0 0 1 365.693 26.721 A 105.604 105.604 0 0 1 367.8 26.7 Q 369.255 26.7 371.589 26.817 A 177.068 177.068 0 0 1 373.1 26.9 Z M 226.7 59.4 L 229.8 76 A 35.971 35.971 0 0 1 227.274 76.727 Q 224.478 77.435 220.41 78.127 A 170.814 170.814 0 0 1 217.8 78.55 A 226.946 226.946 0 0 1 203.633 80.268 A 253.698 253.698 0 0 1 200.9 80.5 L 184.4 72.5 A 458.099 458.099 0 0 1 184.797 67.831 Q 185.441 60.664 186.48 51.231 A 1261.368 1261.368 0 0 1 186.55 50.6 Q 187.66 40.57 188.624 33.94 A 204.632 204.632 0 0 1 189.2 30.2 A 167.039 167.039 0 0 1 201.588 28.307 Q 213.192 26.943 228 26.5 L 228 26.6 A 47.959 47.959 0 0 1 228.602 29.602 Q 229.098 32.52 229.45 36.3 Q 230 42.2 230 48.2 A 232.667 232.667 0 0 1 229.994 49.969 Q 229.975 52.425 229.9 53.7 Q 222.56 56.018 204.028 57.683 A 432.603 432.603 0 0 1 202.7 57.8 Q 202.3 64.2 202.3 66.6 Q 205.9 66.4 212.25 65.7 Q 218.6 65 222.2 64.2 L 226.7 59.4 Z M 182.7 29 L 178.5 49.1 L 174.5 45 A 28.524 28.524 0 0 0 171.052 44.06 A 37.508 37.508 0 0 0 167.95 43.55 A 44.243 44.243 0 0 0 165.573 43.319 Q 163.38 43.168 161.6 43.3 L 159.3 44.6 L 156.9 72.1 A 8.003 8.003 0 0 0 156.865 72.66 Q 156.841 73.576 157.051 74.317 A 3.659 3.659 0 0 0 158.7 76.5 L 156.3 79 L 138 79 L 141.9 33.1 A 3.333 3.333 0 0 0 141.912 32.823 Q 141.912 32.291 141.73 31.844 A 2.4 2.4 0 0 0 141.25 31.1 Q 140.5 30.3 139.6 29.65 A 27.033 27.033 0 0 0 139.183 29.354 Q 138.6 28.95 138.3 28.8 L 143.6 26.5 L 160.6 28.9 L 160.2 33.1 L 166 26.5 A 95.232 95.232 0 0 1 174.991 27.349 A 121.024 121.024 0 0 1 175 27.35 A 64.857 64.857 0 0 1 178.239 27.887 Q 180.763 28.375 182.7 29 Z M 126.1 76.5 L 123.7 79 L 105.4 79 L 109.3 33.1 A 3.333 3.333 0 0 0 109.312 32.823 Q 109.312 32.291 109.13 31.844 A 2.4 2.4 0 0 0 108.65 31.1 Q 107.9 30.3 107 29.65 A 27.033 27.033 0 0 0 106.583 29.354 Q 106 28.95 105.7 28.8 L 111 26.5 L 128 28.9 L 124.3 72.1 A 8.003 8.003 0 0 0 124.265 72.66 Q 124.241 73.576 124.451 74.317 A 3.659 3.659 0 0 0 126.1 76.5 Z M 322.2 76.5 L 319.8 79 L 301.5 79 L 305.4 33.1 A 3.333 3.333 0 0 0 305.412 32.823 Q 305.412 32.291 305.23 31.844 A 2.4 2.4 0 0 0 304.75 31.1 Q 304 30.3 303.1 29.65 A 27.033 27.033 0 0 0 302.683 29.354 Q 302.1 28.95 301.8 28.8 L 307.1 26.5 L 324.1 28.9 L 320.4 72.1 A 8.003 8.003 0 0 0 320.365 72.66 Q 320.341 73.576 320.551 74.317 A 3.659 3.659 0 0 0 322.2 76.5 Z M 131.8 13.5 L 122.4 23.2 L 119.5 23.8 Q 115.2 18.6 110 13.9 L 107.2 13.1 L 108.4 10.3 L 119.2 1.7 A 70.348 70.348 0 0 1 126.831 8.048 A 55.808 55.808 0 0 1 131.8 13.5 Z M 327.9 13.5 L 318.5 23.2 L 315.6 23.8 Q 311.3 18.6 306.1 13.9 L 303.3 13.1 L 304.5 10.3 L 315.3 1.7 A 70.348 70.348 0 0 1 322.931 8.048 A 55.808 55.808 0 0 1 327.9 13.5 Z M 204.148 42.108 A 282.66 282.66 0 0 0 204.2 41.5 A 176.773 176.773 0 0 1 206.861 41.198 Q 210.64 40.8 212.6 40.8 Q 212.725 41.613 212.791 42.601 A 32.517 32.517 0 0 1 212.85 43.85 Q 212.9 45.6 212.8 47.2 A 24.968 24.968 0 0 1 211.588 47.469 Q 208.545 48.07 203.6 48.4 A 11592.924 11592.924 0 0 0 203.663 47.684 Q 204.018 43.637 204.148 42.108 Z" vector-effect="non-scaling-stroke"/></g></svg>