<?xml version="1.0" standalone="no"?><!DOCTYPE svg PUBLIC "-//W3C//DTD SVG 1.1//EN" "http://www.w3.org/Graphics/SVG/1.1/DTD/svg11.dtd">
<svg class="icon" viewBox="0 0 1651 1024" version="1.1" xmlns="http://www.w3.org/2000/svg" width="322.4609375" height="200">
    <path d="M757.322797 1019.325217c189.796174 0 372.825043-62.597565 519.168-176.884869 108.900174 62.018783 252.037565 54.672696 351.677217-16.784696a44.210087 44.210087 0 0 0 18.298435-31.476869c10.640696-99.995826-27.158261-196.830609-100.396522-264.68174 73.238261-67.806609 111.037217-164.59687 100.396522-264.503652a44.121043 44.121043 0 0 0-18.342957-31.476869c-99.684174-71.457391-242.910609-78.758957-351.632695-16.784696C1130.103318 102.444522 947.074449 39.846957 757.322797 39.846957 430.933927 39.846957 135.220536 224.790261 4.01497 511.065043a44.477217 44.477217 0 0 0 0 37.042087c131.205565 286.274783 426.918957 471.218087 753.307827 471.218087"
          fill="#48A0DC"/>
    <path d="M668.279318 351.49913v356.173913a44.521739 44.521739 0 1 1-89.043478 0v-356.173913a44.521739 44.521739 0 1 1 89.043478 0z m-267.130435 89.043479a89.043478 89.043478 0 1 1 0 178.086956 89.043478 89.043478 0 0 1 0-178.086956z"
          fill="#2876B7"/>
</svg>